<svg xmlns="http://www.w3.org/2000/svg" width="720" height="420" viewBox="0 0 720 420">
  <rect width="720" height="420" fill="#f8fafc"/>
  <rect x="95" y="120" width="530" height="180" rx="18" fill="#d1d5db" stroke="#111827" stroke-width="5"/>
  <g fill="#ffffff" stroke="#6b7280" stroke-width="2">
    <rect x="125" y="150" width="45" height="35"/><rect x="180" y="150" width="45" height="35"/>
    <rect x="235" y="150" width="45" height="35"/><rect x="290" y="150" width="45" height="35"/>
    <rect x="345" y="150" width="45" height="35"/><rect x="400" y="150" width="45" height="35"/>
    <rect x="455" y="150" width="45" height="35"/><rect x="510" y="150" width="45" height="35"/>
    <rect x="565" y="150" width="30" height="35"/>
    <rect x="125" y="200" width="55" height="35"/><rect x="190" y="200" width="45" height="35"/>
    <rect x="245" y="200" width="45" height="35"/><rect x="300" y="200" width="45" height="35"/>
    <rect x="355" y="200" width="45" height="35"/><rect x="410" y="200" width="45" height="35"/>
    <rect x="465" y="200" width="45" height="35"/><rect x="520" y="200" width="75" height="35"/>
    <rect x="180" y="250" width="360" height="28"/>
  </g>
  <text x="360" y="355" text-anchor="middle" font-family="Arial, sans-serif" font-size="26" fill="#111827">Wireless Keyboard K100</text>
</svg>